# xmcd
#
# Track frame offsets: 
#        150
#        13208
#        23479
#        37694
#        48530
#        64179
#        74611
#        86413
#        98956
#        111755
#        122135
#        135901
#
# Disc length: 1998 seconds
#
# Revision: 0
# Processed by: cddbd v1.5.2PL0 Copyright (c) Steve Scherf et al.
# Submitted via: ExactAudioCopy v0.99pb4
#
DISCID=9907cc0c
DTITLE=Various Artist - Country Stars on LP Vol. 2
DYEAR=1983
DGENRE=Classic Country
TTITLE0=Johnny Paycheck - Don't Take Her She's All I Got
TTITLE1=Johnny Cash - Ballad of a Teenage Queen
TTITLE2=Mike Lunsford - Stealin' Feelin'
TTITLE3=Jack Greene - There Goes My Everything
TTITLE4=Wanda Jackson - One Day at a Time
TTITLE5=Mel Tillis - Wine
TTITLE6=Skeeter Davis - The End of the World
TTITLE7=Hank Thompson - Wild Side of Life
TTITLE8=Stonewall Jackson - Don't Be Angry
TTITLE9=George Jones - Walk Through This World With Me
TTITLE10=Webb Pierce - Back Street Affair
TTITLE11=Claude King - I Wonder Who She Missed Me With Today
EXTD=
EXTT0=
EXTT1=
EXTT2=
EXTT3=
EXTT4=
EXTT5=
EXTT6=
EXTT7=
EXTT8=
EXTT9=
EXTT10=
EXTT11=
PLAYORDER=
